<?xml version="1.0" encoding="UTF-8"?>
<svg width="1200" height="260" viewBox="0 0 1200 260"
     xmlns="http://www.w3.org/2000/svg">

  <style>
    text {
      font-family: Segoe UI, Arial;
      fill: #c9d1d9;
      font-size: 16px;
      text-anchor: middle;
    }
  </style>

  <!-- Background -->
  <rect width="100%" height="100%" fill="#0d1117"/>

  <!-- Title -->
  <text x="600" y="40" font-size="26" fill="#58a6ff">
     Pokémon Team
  </text>

  <!-- Pokemon Cards -->
  <!-- Gardevoir -->
  <g transform="translate(100,70)">
    <rect width="150" height="160" rx="14" fill="#161b22" stroke="#30363d"/>
    <image href="https://raw.githubusercontent.com/PokeAPI/sprites/master/sprites/pokemon/282.png"
           x="35" y="20" width="80"/>
    <text x="75" y="130">Gardevoir</text>
  </g>

  <!-- Lopunny -->
  <g transform="translate(280,70)">
    <rect width="150" height="160" rx="14" fill="#161b22" stroke="#30363d"/>
    <image href="https://raw.githubusercontent.com/PokeAPI/sprites/master/sprites/pokemon/428.png"
           x="35" y="20" width="80"/>
    <text x="75" y="130">Lopunny</text>
  </g>

  <!-- Umbreon -->
  <g transform="translate(460,70)">
    <rect width="150" height="160" rx="14" fill="#161b22" stroke="#30363d"/>
    <image href="https://raw.githubusercontent.com/PokeAPI/sprites/master/sprites/pokemon/197.png"
           x="35" y="20" width="80"/>
    <text x="75" y="130">Umbreon</text>
  </g>

  <!-- Zoroark Hisuian -->
  <g transform="translate(640,70)">
    <rect width="150" height="160" rx="14" fill="#161b22" stroke="#30363d"/>
    <image href="https://raw.githubusercontent.com/PokeAPI/sprites/master/sprites/pokemon/10239.png"
           x="35" y="20" width="80"/>
    <text x="75" y="130">Zoroark (H)</text>
  </g>

  <!-- Meowscarada -->
  <g transform="translate(820,70)">
    <rect width="150" height="160" rx="14" fill="#161b22" stroke="#30363d"/>
    <image href="https://raw.githubusercontent.com/PokeAPI/sprites/master/sprites/pokemon/908.png"
           x="35" y="20" width="80"/>
    <text x="75" y="130">Meowscarada</text>
  </g>

  <!-- Ceruledge -->
  <g transform="translate(1000,70)">
    <rect width="150" height="160" rx="14" fill="#161b22" stroke="#30363d"/>
    <image href="https://raw.githubusercontent.com/PokeAPI/sprites/master/sprites/pokemon/937.png"
           x="35" y="20" width="80"/>
    <text x="75" y="130">Ceruledge</text>
  </g>

</svg>
